<svg xmlns="http://www.w3.org/2000/svg" width="676.36" height="311.473" viewBox="0 0 676.36 311.473"><defs><clipPath id="a"><path d="M0 0h676.36v311.472H0z" data-name="Rectangle 908"/></clipPath></defs><path fill="none" d="M0 0h676.36v311.472H0z"/><g clip-path="url(#a)" data-name="Group 1737"><path fill="#616161" d="M25.465 309.524a28.26 28.26 0 0 1-16.095-5.365A25.2 25.2 0 0 1-.949 289.053l8.915-3.633a20.1 20.1 0 0 0 6.521 10.484 16.24 16.24 0 0 0 11.063 4.293 17.55 17.55 0 0 0 10.813-3.3 10.64 10.64 0 0 0 4.458-9c0-4.21-1.486-7.512-4.458-9.742-2.972-2.31-7.759-4.458-14.2-6.356-6.685-2.145-11.8-4.87-15.189-8.171a17.1 17.1 0 0 1-5.2-12.878 18.87 18.87 0 0 1 6.438-14.2c4.293-4.045 9.907-6.028 16.839-6.028 6.44 0 11.64 1.57 15.6 4.789 4.043 3.219 6.6 6.685 7.842 10.484l-8.915 3.714a13.55 13.55 0 0 0-4.7-6.685c-2.477-2.065-5.7-3.054-9.659-3.054a15.16 15.16 0 0 0-9.575 3.137 9.54 9.54 0 0 0-3.963 7.759 8.8 8.8 0 0 0 3.633 7.1 34.1 34.1 0 0 0 10.731 5.2c3.714 1.239 6.85 2.395 9.327 3.468a48.7 48.7 0 0 1 7.594 4.458 17.9 17.9 0 0 1 5.779 6.933 22.4 22.4 0 0 1 1.98 9.659 20.3 20.3 0 0 1-2.31 9.822 18.05 18.05 0 0 1-6.026 6.852 31.8 31.8 0 0 1-8.091 3.879 25.1 25.1 0 0 1-8.833 1.486Zm57.042 0c-7.844 0-14.2-2.64-19.069-7.842s-7.347-11.8-7.347-19.729a28.9 28.9 0 0 1 7.1-19.481 23.14 23.14 0 0 1 18.243-8.173c7.677 0 13.785 2.477 18.408 7.512s6.935 11.722 6.935 20.06l-.084 1.814h-40.86a17.82 17.82 0 0 0 5.2 12.382 15.72 15.72 0 0 0 11.228 4.54c6.933 0 11.72-2.972 14.2-8.915l8.668 3.633a22.73 22.73 0 0 1-8.338 10.071c-3.879 2.807-8.583 4.126-14.28 4.126Zm13.946-33.761a13.88 13.88 0 0 0-4.045-8.421c-2.475-2.642-6.191-4.046-11.143-4.046a13.93 13.93 0 0 0-9.327 3.386 17.2 17.2 0 0 0-5.449 9.08zm33.353 33.761a20.18 20.18 0 0 1-13.785-4.787 16.9 16.9 0 0 1 .991-25.837c4.375-3.219 9.74-4.787 16.18-4.787 5.7 0 10.4 1.072 14.032 3.137v-1.486a11.79 11.79 0 0 0-3.879-9.163 13.94 13.94 0 0 0-9.577-3.468 15.2 15.2 0 0 0-7.677 1.983 9.95 9.95 0 0 0-4.7 5.529l-8.915-3.8c1.156-3.137 3.549-5.943 7.1-8.586s8.171-3.963 13.95-3.963c6.6 0 12.134 1.9 16.51 5.779s6.521 9.33 6.521 16.345v31.451h-9.332v-7.18h-.409c-3.884 5.946-9.58 8.833-17.01 8.833m1.57-8.831a15.65 15.65 0 0 0 10.9-4.458 13.86 13.86 0 0 0 4.949-10.65c-2.724-2.228-6.85-3.384-12.382-3.384-4.7 0-8.256.991-10.648 3.054a9.31 9.31 0 0 0-3.633 7.182 6.83 6.83 0 0 0 3.3 6.026 13.2 13.2 0 0 0 7.515 2.23Zm44.163 7.18h-9.74v-51.756h9.327v8.419h.412a12.95 12.95 0 0 1 6.108-6.933 17.4 17.4 0 0 1 8.915-2.724 18.8 18.8 0 0 1 7.265 1.239l-3.714 9.08a14.4 14.4 0 0 0-5.2-.744 12.58 12.58 0 0 0-9.327 4.21 14.96 14.96 0 0 0-4.045 10.9Zm47.96 1.655a25.5 25.5 0 0 1-19.152-7.842c-5.035-5.282-7.512-11.8-7.512-19.729s2.477-14.447 7.512-19.729 11.392-7.844 19.152-7.844q8.668 0 14.364 4.21a24.5 24.5 0 0 1 8.338 10.648l-8.915 3.716c-2.642-6.521-7.512-9.742-14.447-9.742a15.12 15.12 0 0 0-11.392 5.284 20.755 20.755 0 0 0 0 26.911 15.12 15.12 0 0 0 11.392 5.284c7.265 0 12.217-3.221 15.024-9.742l8.668 3.714a25.2 25.2 0 0 1-8.5 10.651 24.37 24.37 0 0 1-14.532 4.21m38.633-77.268v23.856l-.412 7.18h.412a17.04 17.04 0 0 1 6.688-6.273 19.3 19.3 0 0 1 9.74-2.557c6.44 0 11.31 1.98 14.694 5.944s5.035 9.245 5.035 15.848v31.615h-9.74v-30.212c0-9.575-4.293-14.364-12.8-14.364a11.9 11.9 0 0 0-9.822 4.789 17.36 17.36 0 0 0-3.8 11.143v28.644h-9.74V232.26h9.74Zm94.433 77.263c-11.145 0-20.473-3.8-27.984-11.308s-11.31-16.922-11.31-28.232 3.8-20.637 11.31-28.232c7.512-7.512 16.839-11.31 27.984-11.31 11.39 0 20.635 4.128 27.817 12.384l-6.768 6.521c-5.119-6.438-12.134-9.575-21.05-9.575a28.84 28.84 0 0 0-20.885 8.336c-5.7 5.531-8.5 12.878-8.5 21.876s2.807 16.345 8.5 21.876a28.84 28.84 0 0 0 20.885 8.336c9.08 0 16.839-3.631 23.277-10.978l6.77 6.768a38 38 0 0 1-12.961 9.907 39.7 39.7 0 0 1-17.087 3.631Zm41.276-47.216c5.037-5.284 11.392-7.842 19.152-7.842a25.5 25.5 0 0 1 19.152 7.842c5.035 5.282 7.512 11.8 7.512 19.729s-2.477 14.447-7.512 19.729-11.392 7.844-19.152 7.844a25.5 25.5 0 0 1-19.152-7.844c-5.035-5.282-7.512-11.8-7.512-19.729s2.477-14.53 7.512-19.729m7.182 33.266a16.36 16.36 0 0 0 23.774 0c3.384-3.384 5.035-7.924 5.035-13.538s-1.651-10.154-5.035-13.538a16.365 16.365 0 0 0-23.774 0c-3.384 3.384-5.035 7.924-5.035 13.538.083 5.614 1.733 10.072 5.035 13.537Zm54.731-39.457v7.18h.412a17.03 17.03 0 0 1 6.685-6.273 19.3 19.3 0 0 1 9.742-2.557c6.438 0 11.31 1.98 14.694 5.944s5.032 9.244 5.032 15.846v31.616h-9.74V277.66c0-9.575-4.293-14.364-12.8-14.364a11.89 11.89 0 0 0-9.822 4.789 17.36 17.36 0 0 0-3.8 11.143v28.644h-9.742v-51.756h9.33Zm64.882 53.412c-5.779 0-10.566-1.4-14.28-4.208a24.53 24.53 0 0 1-8.256-10.566l8.668-3.633c2.724 6.521 7.429 9.742 14.032 9.742a12.75 12.75 0 0 0 7.429-1.983 6.24 6.24 0 0 0 2.889-5.282c0-3.386-2.393-5.7-7.1-6.852l-10.486-2.56a25.4 25.4 0 0 1-9.41-4.787 11.6 11.6 0 0 1-4.458-9.575c0-4.54 2.065-8.256 6.108-11.145a25.94 25.94 0 0 1 26.663-1.154 16.93 16.93 0 0 1 7.677 8.915l-8.419 3.466c-1.9-4.54-5.861-6.852-11.8-6.852a13.37 13.37 0 0 0-7.265 1.818 5.5 5.5 0 0 0-2.972 4.87c0 2.972 2.31 4.952 6.85 6.026l10.236 2.393c4.872 1.156 8.421 3.054 10.815 5.779a14.07 14.07 0 0 1 3.466 9.33 14.53 14.53 0 0 1-5.7 11.638c-3.8 3.137-8.75 4.622-14.694 4.622Zm31.533-47.221c5.037-5.284 11.392-7.842 19.152-7.842a25.5 25.5 0 0 1 19.152 7.842c5.035 5.282 7.512 11.8 7.512 19.729s-2.477 14.447-7.512 19.729-11.393 7.844-19.152 7.844a25.5 25.5 0 0 1-19.152-7.844c-5.035-5.282-7.512-11.8-7.512-19.729s2.477-14.53 7.512-19.729m7.265 33.266a16.36 16.36 0 0 0 23.774 0c3.384-3.384 5.037-7.924 5.037-13.538s-1.653-10.154-5.037-13.538a16.365 16.365 0 0 0-23.774 0c-3.384 3.384-5.035 7.924-5.035 13.538s1.651 10.072 5.034 13.537Zm55.225 12.3h-9.74V232.26h9.74Zm33.432 1.651c-7.844 0-14.2-2.64-19.069-7.842s-7.347-11.8-7.347-19.729a28.9 28.9 0 0 1 7.1-19.481 23.14 23.14 0 0 1 18.243-8.173c7.677 0 13.785 2.477 18.408 7.512s6.935 11.722 6.935 20.06l-.082 1.816h-40.862a17.82 17.82 0 0 0 5.2 12.382 15.72 15.72 0 0 0 11.228 4.54c6.933 0 11.72-2.972 14.2-8.915l8.668 3.633a22.73 22.73 0 0 1-8.338 10.071c-3.879 2.807-8.668 4.126-14.28 4.126Zm13.95-33.761a13.88 13.88 0 0 0-4.045-8.421c-2.475-2.642-6.191-4.046-11.143-4.046a13.93 13.93 0 0 0-9.327 3.386 17.2 17.2 0 0 0-5.449 9.08Z"/><path fill="#4285f4" d="M-.949 85.724C-.949 38.536 38.728 0 86.082 0c26.127 0 44.741 10.287 58.784 23.677l-16.493 16.49C118.412 30.7 104.7 23.514 86.082 23.514c-34.452 0-61.395 27.758-61.395 62.21s26.942 62.212 61.395 62.212c22.371 0 35.107-8.981 43.27-17.146 6.7-6.694 11.1-16.328 12.737-29.39H86.082V78.05h78.868a78 78 0 0 1 1.306 14.7c0 17.636-4.737 39.352-20.249 54.7-15.022 15.677-34.289 24-59.763 24-47.516-.164-87.193-38.535-87.193-85.726"/><path fill="#db4437" d="M229.775 61.069c-30.536 0-55.356 23.186-55.356 55.191 0 31.84 24.82 55.191 55.356 55.191s55.354-23.351 55.354-55.191c0-32-24.82-55.191-55.354-55.191m0 88.5c-16.655 0-31.189-13.717-31.189-33.473 0-19.921 14.368-33.476 31.189-33.476 16.653 0 31.187 13.555 31.187 33.476-.001 19.757-14.534 33.475-31.187 33.475Z"/><path fill="#f4b400" d="M350.604 61.069c-30.533 0-55.354 23.186-55.354 55.191 0 31.84 24.82 55.191 55.354 55.191s55.357-23.351 55.357-55.191c0-32-24.82-55.191-55.356-55.191Zm0 88.5c-16.653 0-31.187-13.717-31.187-33.473 0-19.921 14.368-33.476 31.187-33.476s31.188 13.556 31.188 33.477c0 19.756-14.531 33.474-31.188 33.474Z"/><path fill="#4285f4" d="M498.869 64.334v8.981h-.816c-5.39-6.531-15.84-12.409-29.064-12.409-27.6 0-52.906 24.165-52.906 55.354 0 30.861 25.311 55.026 52.906 55.026 13.225 0 23.675-5.878 29.064-12.572h.816v8c0 21.064-11.268 32.332-29.392 32.332-14.859 0-24-10.615-27.758-19.6l-21.064 8.818c6.043 14.7 22.208 32.658 48.988 32.658 28.411 0 52.414-16.655 52.414-57.478v-99.11zM471.11 149.57c-16.655 0-30.7-14.043-30.7-33.311 0-19.431 14.043-33.638 30.7-33.638 16.49 0 29.392 14.208 29.392 33.638.163 19.431-12.901 33.311-29.392 33.311"/><path fill="#0f9d58" d="M538.71 5.878h24.167v162.143H538.71z"/><path fill="#db4437" d="M629.335 149.571c-12.409 0-21.064-5.715-26.78-16.655l73.808-30.54-2.45-6.2c-4.572-12.411-18.615-35.107-47.189-35.107-28.411 0-52.088 22.371-52.088 55.191 0 30.861 23.349 55.191 54.7 55.191 25.309 0 39.842-15.514 46.045-24.493l-18.778-12.574c-6.369 9.144-14.859 15.187-27.268 15.187m-1.8-67.275c9.634 0 17.8 4.735 20.411 11.756l-49.31 20.411c-.653-21.227 16.493-32.167 28.9-32.167Z"/></g></svg>